<svg width="24" height="24" viewBox="0 0 24 24" fill="none" xmlns="http://www.w3.org/2000/svg">
<path d="M7 18C5.17107 18.4117 4 19.0443 4 19.7537C4 20.9943 7.58172 22 12 22C16.4183 22 20 20.9943 20 19.7537C20 19.0443 18.8289 18.4117 17 18" stroke="#00A9A2" stroke-width="1.5" stroke-linecap="round"/>
<path d="M13.2574 17.4936C12.9201 17.8184 12.4693 18 12.0002 18C11.531 18 11.0802 17.8184 10.7429 17.4936C7.6543 14.5008 3.51519 11.1575 5.53371 6.30373C6.6251 3.67932 9.24494 2 12.0002 2C14.7554 2 17.3752 3.67933 18.4666 6.30373C20.4826 11.1514 16.3536 14.5111 13.2574 17.4936Z" stroke="#00A9A2" stroke-width="1.5"/>
<path d="M16 10.1854C16.0005 9.90023 15.8914 9.61413 15.6741 9.39746L12.7889 6.51408C12.5707 6.29648 12.2853 6.18791 12 6.18791C11.7142 6.18791 11.4284 6.29648 11.2111 6.51408L8.32638 9.39653C8.10817 9.6146 8 9.90023 8 10.1859C8 10.471 8.10817 10.7567 8.32638 10.9743L11.2111 13.8581C11.4288 14.0753 11.7151 14.1843 12 14.1834C12.2853 14.1834 12.5707 14.0753 12.7889 13.8572L15.6736 10.9747C15.8909 10.7567 16 10.4706 16 10.1854Z" fill="#FF4300"/>
</svg>
