<svg width="24" height="24" viewBox="0 0 24 24" fill="none" xmlns="http://www.w3.org/2000/svg">
<path d="M5.55078 22C4.81745 22 4.19661 21.7458 3.68828 21.2375C3.17995 20.7292 2.92578 20.1083 2.92578 19.375V16.25H6.10078V2L7.60078 3.5L9.10078 2L10.5758 3.5L12.0758 2L13.5758 3.5L15.0758 2L16.5758 3.5L18.0758 2L19.5758 3.5L21.0758 2V19.375C21.0758 20.1083 20.8216 20.7292 20.3133 21.2375C19.8049 21.7458 19.1841 22 18.4508 22H5.55078ZM18.4508 20.5C18.7841 20.5 19.0549 20.3958 19.2633 20.1875C19.4716 19.9792 19.5758 19.7083 19.5758 19.375V4.5H7.60078V16.25H17.3258V19.375C17.3258 19.7083 17.4299 19.9792 17.6383 20.1875C17.8466 20.3958 18.1174 20.5 18.4508 20.5ZM8.92578 8.45V6.95H14.9258V8.45H8.92578ZM8.92578 11.8V10.3H14.9258V11.8H8.92578ZM17.2508 8.45C17.0508 8.45 16.8758 8.375 16.7258 8.225C16.5758 8.075 16.5008 7.9 16.5008 7.7C16.5008 7.5 16.5758 7.325 16.7258 7.175C16.8758 7.025 17.0508 6.95 17.2508 6.95C17.4508 6.95 17.6258 7.025 17.7758 7.175C17.9258 7.325 18.0008 7.5 18.0008 7.7C18.0008 7.9 17.9258 8.075 17.7758 8.225C17.6258 8.375 17.4508 8.45 17.2508 8.45ZM17.2508 11.675C17.0508 11.675 16.8758 11.6 16.7258 11.45C16.5758 11.3 16.5008 11.125 16.5008 10.925C16.5008 10.725 16.5758 10.55 16.7258 10.4C16.8758 10.25 17.0508 10.175 17.2508 10.175C17.4508 10.175 17.6258 10.25 17.7758 10.4C17.9258 10.55 18.0008 10.725 18.0008 10.925C18.0008 11.125 17.9258 11.3 17.7758 11.45C17.6258 11.6 17.4508 11.675 17.2508 11.675ZM5.52578 20.5H15.8258V17.75H4.42578V19.375C4.42578 19.7083 4.52995 19.9792 4.73828 20.1875C4.94661 20.3958 5.20911 20.5 5.52578 20.5Z" fill="#00A9A2"/>
</svg>
