<svg width="33" height="24" viewBox="0 0 33 24" fill="none" xmlns="http://www.w3.org/2000/svg">
<path fill-rule="evenodd" clip-rule="evenodd" d="M28.9024 18.8966V6H30V18.8966C30 20.8867 28.4439 22.5 26.5244 22.5H7.5V21.3621H26.5244C27.8377 21.3621 28.9024 20.2582 28.9024 18.8966Z" fill="#00A9A2"/>
<path d="M22.5 11.2503C22.5 14.3593 21.2403 17.1714 19.2038 19.2038C17.1679 21.2396 14.3551 22.5 11.2503 22.5H3.97462C1.78086 22.5 0 20.7191 0 18.5254V3.97881C0 2.87983 0.446437 1.88565 1.16605 1.16674C1.88216 0.446437 2.87983 0 3.97462 0H11.2497C17.4634 0 22.5 5.03586 22.5 11.2503Z" fill="#007460"/>
<path d="M6 6C6 5.17157 6.6268 4.5 7.4 4.5H25.6C26.3732 4.5 27 5.17157 27 6V18C27 18.8284 26.3732 19.5 25.6 19.5H7.4C6.6268 19.5 6 18.8284 6 18V6Z" fill="#DCF3F3"/>
<path fill-rule="evenodd" clip-rule="evenodd" d="M25.6 6H7.4L7.4 18H25.6V6ZM7.4 4.5C6.6268 4.5 6 5.17157 6 6V18C6 18.8284 6.6268 19.5 7.4 19.5H25.6C26.3732 19.5 27 18.8284 27 18V6C27 5.17157 26.3732 4.5 25.6 4.5H7.4Z" fill="#00A9A2"/>
<path d="M19.5 11.9998C19.5003 11.7858 19.4185 11.5711 19.2556 11.4085L17.0917 9.24477C16.928 9.08147 16.714 9 16.5 9C16.2856 9 16.0713 9.08147 15.9083 9.24477L13.7448 11.4078C13.5811 11.5715 13.5 11.7858 13.5 12.0002C13.5 12.2142 13.5811 12.4285 13.7448 12.5918L15.9083 14.7559C16.0716 14.9189 16.2863 15.0007 16.5 15C16.714 15 16.928 14.9189 17.0917 14.7552L19.2552 12.5922C19.4182 12.4285 19.5 12.2138 19.5 11.9998Z" fill="#00A9A2"/>
<path d="M27 6.75C27 7.99264 25.9926 9 24.75 9C23.5074 9 22.5 7.99264 22.5 6.75C22.5 5.50736 23.5074 4.5 24.75 4.5C25.9926 4.5 27 5.50736 27 6.75Z" fill="#00A9A2"/>
<path d="M27 16.5C27 18.1569 25.9926 19.5 24.75 19.5C23.5074 19.5 22.5 18.1569 22.5 16.5C22.5 14.8431 23.5074 13.5 24.75 13.5C25.9926 13.5 27 14.8431 27 16.5Z" fill="#00A9A2"/>
<path d="M10.5 6.75C10.5 7.99264 9.49264 9 8.25 9C7.00736 9 6 7.99264 6 6.75C6 5.50736 7.00736 4.5 8.25 4.5C9.49264 4.5 10.5 5.50736 10.5 6.75Z" fill="#00A9A2"/>
<path d="M10.5 16.5C10.5 18.1569 9.49264 19.5 8.25 19.5C7.00736 19.5 6 18.1569 6 16.5C6 14.8431 7.00736 13.5 8.25 13.5C9.49264 13.5 10.5 14.8431 10.5 16.5Z" fill="#00A9A2"/>
<path fill-rule="evenodd" clip-rule="evenodd" d="M32.2105 19.2439V9H33V19.2439C33 21.8706 30.7025 24 27.8684 24H10.5V23.2683H27.8684C30.2665 23.2683 32.2105 21.4665 32.2105 19.2439Z" fill="#00A9A2"/>
</svg>
