<svg width="20" height="20" viewBox="0 0 20 20" fill="none" xmlns="http://www.w3.org/2000/svg">
<path d="M5.83398 15C4.30988 15.3431 3.33398 15.8702 3.33398 16.4614C3.33398 17.4952 6.31875 18.3333 10.0007 18.3333C13.6825 18.3333 16.6673 17.4952 16.6673 16.4614C16.6673 15.8702 15.6914 15.3431 14.1673 15" stroke="#070706" stroke-width="1.5" stroke-linecap="round"/>
<path d="M12.0846 7.5C12.0846 8.65059 11.1519 9.58333 10.0013 9.58333C8.85071 9.58333 7.91797 8.65059 7.91797 7.5C7.91797 6.3494 8.85071 5.41666 10.0013 5.41666C11.1519 5.41666 12.0846 6.3494 12.0846 7.5Z" stroke="#070706" stroke-width="1.5"/>
<path d="M11.0491 14.578C10.7681 14.8487 10.3924 15 10.0014 15C9.61046 15 9.23479 14.8487 8.95372 14.578C6.37989 12.084 2.93063 9.29794 4.61273 5.25311C5.52222 3.0661 7.70542 1.66666 10.0014 1.66666C12.2974 1.66666 14.4806 3.0661 15.3901 5.25311C17.0701 9.29284 13.6293 12.0926 11.0491 14.578Z" stroke="#070706" stroke-width="1.5"/>
</svg>
