<svg xmlns="http://www.w3.org/2000/svg" width="16.5" height="11.981" viewBox="0 0 16.5 11.981">
  <path id="Vector_1_" data-name="Vector (1)" d="M4.2,11.981a2.133,2.133,0,0,1-1.566-.647,2.133,2.133,0,0,1-.647-1.566H.75V1.125A1.079,1.079,0,0,1,1.087.338,1.079,1.079,0,0,1,1.875,0H12.731V3.131H14.7l2.55,3.394V9.769H15.919a2.214,2.214,0,0,1-3.778,1.566,2.133,2.133,0,0,1-.647-1.566H6.412a2.133,2.133,0,0,1-.647,1.566A2.133,2.133,0,0,1,4.2,11.981Zm0-1.125A1.088,1.088,0,1,0,3.431,9,1.088,1.088,0,0,0,4.2,10.856ZM1.875,8.644h.412a2.484,2.484,0,0,1,.806-.806,2.034,2.034,0,0,1,1.088-.3,2.034,2.034,0,0,1,1.1.309,2.612,2.612,0,0,1,.816.8h5.513V1.125H1.875Zm11.831,2.213a1.088,1.088,0,1,0-.769-.319A1.048,1.048,0,0,0,13.706,10.856Zm-.975-3.825h3.487L14.137,4.256H12.731Z" transform="translate(-0.75)" fill="#ff4300"/>
</svg>
