<svg width="236" height="16" viewBox="0 0 236 16" fill="none" xmlns="http://www.w3.org/2000/svg">
<path d="M156.361 2.6655C156.375 2.8776 156.361 3.08971 156.295 3.29475C156.113 3.88158 155.749 4.31994 155.151 4.55326C154.969 4.62396 154.78 4.65224 154.576 4.6381C154.576 4.54619 154.568 4.4472 154.576 4.35529C154.634 3.86744 154.86 3.46444 155.231 3.1392C155.523 2.88467 155.865 2.72913 156.251 2.67257C156.259 2.67257 156.273 2.6655 156.28 2.6655C156.302 2.6655 156.331 2.6655 156.361 2.6655Z" fill="#070706"/>
<path d="M157.971 5.59259C156.579 6.45516 156.762 8.34292 158.197 8.9651C158.168 9.04288 158.146 9.12065 158.11 9.19842C157.876 9.79232 157.527 10.3226 157.097 10.7963C156.922 10.9872 156.718 11.1357 156.463 11.1993C156.193 11.27 155.931 11.2205 155.676 11.1215C155.508 11.0579 155.348 10.9872 155.173 10.9377C154.794 10.8387 154.43 10.8882 154.073 11.0296C153.905 11.0933 153.738 11.164 153.563 11.2064C153.235 11.2912 152.936 11.2064 152.674 11.0013C152.441 10.8246 152.259 10.5983 152.084 10.365C151.618 9.75697 151.304 9.0853 151.129 8.34999C151.027 7.93285 150.984 7.50863 151.005 7.07734C151.042 6.51879 151.202 5.99559 151.574 5.55017C151.924 5.12595 152.375 4.87142 152.929 4.77951C153.279 4.72295 153.614 4.79365 153.942 4.91384C154.102 4.97041 154.255 5.02697 154.415 5.08353C154.568 5.14009 154.729 5.14009 154.889 5.08353C155.093 5.01283 155.297 4.93505 155.508 4.86435C155.778 4.77244 156.048 4.70881 156.332 4.73002C156.987 4.77244 157.549 5.00576 157.949 5.53603C157.957 5.55017 157.964 5.55724 157.971 5.57138C157.971 5.58552 157.971 5.58552 157.971 5.59259Z" fill="#070706"/>
<path d="M161.819 8.47724C161.819 9.38223 161.819 10.2802 161.819 11.1781C161.396 11.1781 160.973 11.1781 160.551 11.1781C160.551 8.54087 160.551 5.91074 160.551 3.27353C160.573 3.27353 160.587 3.27353 160.609 3.27353C161.615 3.27353 162.627 3.27353 163.633 3.27353C164.172 3.27353 164.689 3.39372 165.148 3.6836C165.688 4.02298 166.03 4.49668 166.198 5.09766C166.365 5.73398 166.343 6.3703 166.074 6.97835C165.746 7.72072 165.156 8.18029 164.354 8.38533C164.099 8.44896 163.844 8.47724 163.582 8.47724C163.021 8.47724 162.452 8.47724 161.891 8.47724C161.87 8.47724 161.848 8.47724 161.819 8.47724ZM161.826 7.44498C161.848 7.44498 161.862 7.44498 161.87 7.44498C162.343 7.44498 162.817 7.44498 163.29 7.44498C163.502 7.44498 163.706 7.42377 163.91 7.36721C164.405 7.23287 164.762 6.94299 164.915 6.46222C165.039 6.08042 165.039 5.69863 164.923 5.30976C164.813 4.94918 164.587 4.67344 164.238 4.49668C163.99 4.37649 163.72 4.31286 163.451 4.30579C162.926 4.29872 162.394 4.29872 161.87 4.29872C161.855 4.29872 161.84 4.29872 161.826 4.30579C161.826 5.35926 161.826 6.39858 161.826 7.44498Z" fill="#070706"/>
<path d="M170.46 7.7561C170.453 7.52278 170.482 7.29653 170.431 7.07028C170.366 6.75919 170.183 6.54709 169.877 6.43396C169.491 6.29256 169.09 6.28549 168.704 6.41982C168.369 6.54001 168.143 6.75919 168.056 7.10564C168.056 7.11978 168.034 7.13392 168.019 7.13392C167.648 7.13392 167.283 7.13392 166.897 7.13392C166.919 7.02079 166.926 6.91474 166.948 6.80869C167.065 6.33498 167.364 5.9956 167.779 5.74108C168.114 5.53604 168.486 5.42291 168.886 5.38049C169.345 5.331 169.797 5.35928 170.242 5.48655C170.613 5.5926 170.948 5.76936 171.218 6.05217C171.473 6.32084 171.619 6.639 171.655 6.99958C171.67 7.10564 171.67 7.21876 171.67 7.32481C171.67 8.58332 171.67 9.84183 171.67 11.1003C171.67 11.1215 171.67 11.1498 171.67 11.171C171.276 11.171 170.89 11.171 170.497 11.171C170.497 10.8599 170.497 10.5418 170.497 10.2307C170.489 10.2307 170.489 10.2307 170.482 10.2236C170.475 10.2307 170.468 10.2378 170.46 10.2519C170.169 10.7398 169.732 11.0296 169.178 11.164C168.631 11.2983 168.085 11.2559 167.568 11.0226C167.028 10.7751 166.701 10.358 166.62 9.78527C166.562 9.38226 166.62 9.00047 166.868 8.66109C167.058 8.40656 167.313 8.23688 167.604 8.10961C167.91 7.98235 168.231 7.91165 168.559 7.87629C168.872 7.84801 169.185 7.83387 169.499 7.81266C169.797 7.79145 170.096 7.77731 170.395 7.76317C170.417 7.76317 170.438 7.76317 170.46 7.7561ZM170.46 8.59039C170.438 8.59039 170.424 8.59039 170.417 8.59039C170.169 8.60453 169.921 8.61867 169.673 8.63988C169.382 8.66109 169.09 8.67523 168.799 8.70352C168.588 8.72473 168.384 8.78129 168.202 8.89441C167.91 9.07117 167.779 9.3964 167.881 9.71456C167.961 9.96909 168.143 10.1317 168.398 10.2095C168.923 10.3721 169.426 10.3297 169.892 10.0398C170.169 9.87011 170.351 9.62265 170.424 9.31156C170.482 9.07824 170.446 8.83785 170.46 8.59039Z" fill="#070706"/>
<path d="M172.164 5.44412C172.609 5.44412 173.046 5.44412 173.49 5.44412C173.986 6.99958 174.481 8.55504 174.984 10.1176C174.991 10.1176 174.998 10.1176 174.998 10.1176C175.006 10.1034 175.013 10.0893 175.02 10.0751C175.151 9.658 175.29 9.24085 175.421 8.81664C175.778 7.70661 176.128 6.59657 176.485 5.49361C176.492 5.46533 176.499 5.44412 176.536 5.44412C176.944 5.44412 177.352 5.44412 177.753 5.44412C177.76 5.44412 177.767 5.44412 177.782 5.44412C177.767 5.49361 177.745 5.53604 177.731 5.58553C176.995 7.57934 176.266 9.57315 175.53 11.5599C175.406 11.8922 175.261 12.2174 175.057 12.5073C174.751 12.9457 174.335 13.2073 173.796 13.285C173.461 13.3345 173.133 13.3345 172.798 13.3063C172.769 13.3063 172.747 13.2992 172.747 13.2638C172.747 12.9669 172.747 12.6699 172.747 12.373C172.747 12.3659 172.747 12.3588 172.747 12.3659C172.864 12.3659 172.98 12.3659 173.097 12.3659C173.235 12.3659 173.381 12.3588 173.512 12.3164C173.738 12.2457 173.905 12.1043 174.022 11.9063C174.124 11.7367 174.175 11.5387 174.248 11.3549C174.292 11.2417 174.284 11.1428 174.241 11.0296C173.548 9.18429 172.864 7.33895 172.179 5.49361C172.179 5.48654 172.171 5.46533 172.164 5.44412Z" fill="#070706"/>
<path d="M216.531 2.82809C216.531 3.13919 216.531 3.45028 216.531 3.76137C216.531 4.87847 216.531 5.99557 216.531 7.11974C216.531 7.14802 216.531 7.16923 216.531 7.20459C212.013 7.20459 207.51 7.20459 203 7.20459C203 5.74811 203 4.29164 203 2.82809C207.51 2.82809 212.02 2.82809 216.531 2.82809Z" fill="#2699D6"/>
<path d="M203 8.78833C203.029 8.78833 203.051 8.78833 203.08 8.78833C207.532 8.78833 211.984 8.78833 216.443 8.78833C216.472 8.78833 216.494 8.78833 216.531 8.78833C216.531 10.2448 216.531 11.7013 216.531 13.1578C216.501 13.1578 216.472 13.1578 216.443 13.1578C211.991 13.1578 207.539 13.1578 203.087 13.1578C203.058 13.1578 203.029 13.1578 203 13.1578C203 11.7083 203 10.2519 203 8.78833Z" fill="#75B843"/>
<path d="M233.347 2.82811C233.435 2.84225 233.522 2.85639 233.61 2.8776C234.331 3.03314 234.768 3.47857 234.928 4.16438C235.045 4.64516 235.023 5.12594 234.805 5.58551C234.564 6.09457 234.149 6.39859 233.588 6.49757C233.078 6.58948 232.575 6.53999 232.087 6.36324C232.043 6.3491 231.985 6.35617 231.941 6.37031C231.635 6.43394 231.329 6.44808 231.016 6.44808C229.486 6.44101 227.948 6.44808 226.418 6.44808C226.396 6.44808 226.367 6.44808 226.338 6.44808C226.374 6.20062 226.418 5.95316 226.454 5.7057C226.469 5.7057 226.476 5.69863 226.491 5.69863C227.037 5.69863 227.584 5.69863 228.13 5.69863C228.232 5.69863 228.334 5.72691 228.436 5.73398C228.436 5.57137 228.436 5.40168 228.436 5.22492C228.436 4.98453 228.436 4.73708 228.429 4.49669C228.422 4.29872 228.371 4.10075 228.261 3.93107C228.123 3.71896 227.926 3.6129 227.671 3.6129C227.365 3.6129 227.067 3.6129 226.761 3.6129C226.739 3.6129 226.717 3.6129 226.688 3.6129C226.724 3.36545 226.76 3.11799 226.797 2.87053C226.811 2.87053 226.826 2.86346 226.841 2.86346C227.176 2.86346 227.504 2.85639 227.839 2.86346C228.174 2.87053 228.487 2.9483 228.771 3.13213C229.129 3.36545 229.34 3.70482 229.427 4.10075C229.471 4.29165 229.493 4.48962 229.5 4.68758C229.515 4.99868 229.5 5.30977 229.5 5.62086C229.5 5.64207 229.5 5.66328 229.5 5.69156C229.522 5.69156 229.544 5.69156 229.558 5.69156C230.163 5.69156 230.775 5.69156 231.38 5.69156C231.424 5.69156 231.453 5.68449 231.46 5.64207C231.475 5.57137 231.504 5.50773 231.504 5.43703C231.504 4.9209 231.504 4.41184 231.504 3.89571C231.504 3.68361 231.562 3.49271 231.686 3.31595C231.817 3.13213 232.007 3.03314 232.218 2.96244C232.429 2.88467 232.655 2.84932 232.881 2.82811C232.896 2.82811 232.91 2.82104 232.917 2.81396C233.056 2.82811 233.202 2.82811 233.347 2.82811ZM232.517 5.61379C232.757 5.66328 232.99 5.68449 233.231 5.67742C233.529 5.67035 233.755 5.54309 233.865 5.26735C234.025 4.87141 234.018 4.46841 233.879 4.07247C233.806 3.86036 233.639 3.7331 233.413 3.70482C233.282 3.69068 233.151 3.69775 233.019 3.70482C232.83 3.71189 232.64 3.75431 232.466 3.84622C232.524 3.93814 232.524 4.04419 232.524 4.14317C232.524 4.53911 232.524 4.93504 232.524 5.33805C232.517 5.42289 232.517 5.5148 232.517 5.61379Z" fill="#070706"/>
<path d="M221.231 2.93417C221.195 3.18163 221.158 3.42908 221.122 3.67654C221.093 3.67654 221.071 3.67654 221.049 3.67654C220.757 3.67654 220.459 3.67654 220.167 3.67654C219.701 3.67654 219.417 3.89572 219.322 4.33408C219.3 4.43306 219.278 4.53912 219.278 4.6381C219.278 4.91384 219.264 5.18958 219.293 5.45825C219.337 5.8754 219.65 6.13699 220.087 6.14406C220.75 6.15114 221.413 6.14407 222.076 6.15114C222.783 6.15114 223.49 6.15821 224.197 6.15821C224.277 6.15821 224.357 6.15114 224.43 6.12992C224.685 6.06629 224.823 5.84711 224.787 5.57137C224.758 5.33806 224.554 5.16837 224.291 5.16837C223.934 5.16837 223.584 5.16837 223.227 5.16837C222.98 5.16837 222.739 5.12595 222.521 5.01282C222.215 4.85728 222.054 4.60275 222.003 4.27752C221.967 4.03713 221.981 3.80381 222.083 3.57756C222.222 3.26647 222.477 3.08971 222.798 2.98366C223.067 2.89175 223.351 2.87053 223.635 2.86346C224.401 2.86346 225.166 2.86346 225.931 2.86346C225.945 2.86346 225.96 2.86346 225.982 2.86346C225.945 3.11092 225.909 3.35838 225.865 3.61291C225.836 3.61291 225.814 3.61291 225.792 3.61291C225.078 3.61291 224.357 3.61291 223.643 3.61291C223.541 3.61291 223.439 3.61998 223.344 3.64826C223.111 3.70483 223.023 3.84623 223.031 4.10076C223.038 4.3058 223.184 4.46134 223.388 4.49669C223.446 4.50376 223.497 4.51084 223.555 4.51084C223.905 4.51084 224.255 4.51084 224.605 4.51084C224.889 4.51791 225.158 4.58154 225.384 4.75122C225.697 4.97747 225.836 5.28856 225.836 5.66329C225.836 5.85418 225.814 6.03801 225.734 6.22184C225.603 6.53293 225.348 6.70262 225.034 6.79453C224.801 6.86523 224.561 6.89351 224.32 6.89351C222.841 6.89351 221.355 6.89351 219.876 6.89351C219.562 6.89351 219.264 6.83695 218.987 6.69555C218.586 6.49051 218.353 6.15821 218.258 5.74106C218.222 5.57844 218.2 5.40876 218.193 5.24614C218.185 4.92798 218.171 4.60982 218.229 4.29166C218.317 3.84623 218.513 3.47151 218.907 3.20284C219.147 3.04022 219.417 2.94124 219.708 2.93417C220.211 2.92003 220.714 2.9271 221.216 2.92003C221.216 2.9271 221.224 2.93417 221.231 2.93417Z" fill="#070706"/>
<path d="M221.289 13.0588C220.939 13.0588 220.589 13.0588 220.232 13.0588C220.232 13.0305 220.232 13.0093 220.232 12.9881C220.232 12.2881 220.232 11.5952 220.232 10.8953C220.232 10.8246 220.225 10.7468 220.211 10.6761C220.167 10.5135 220.05 10.4216 219.875 10.4004C219.657 10.3721 219.453 10.4216 219.249 10.4923C219.249 11.3407 219.249 12.1962 219.249 13.0517C218.892 13.0517 218.535 13.0517 218.178 13.0517C218.178 13.0305 218.178 13.0093 218.178 12.9881C218.178 12.0972 218.178 11.2064 218.178 10.3155C218.178 10.2589 218.178 10.2024 218.185 10.1458C218.214 9.962 218.323 9.82766 218.498 9.7711C218.71 9.7004 218.928 9.64384 219.154 9.60141C219.431 9.54485 219.708 9.53778 219.985 9.55192C220.247 9.56606 220.509 9.60848 220.735 9.74989C220.801 9.79231 220.844 9.79231 220.917 9.76403C221.435 9.55899 221.959 9.48829 222.506 9.61556C222.987 9.72868 223.271 10.061 223.315 10.5418C223.322 10.6337 223.329 10.7256 223.329 10.8104C223.329 11.5387 223.329 12.2598 223.329 12.9881C223.329 13.0093 223.329 13.0305 223.329 13.0588C222.979 13.0588 222.63 13.0588 222.28 13.0588C222.28 13.0376 222.28 13.0164 222.28 12.9951C222.28 12.2952 222.28 11.5952 222.28 10.9023C222.28 10.8387 222.28 10.7751 222.265 10.7185C222.222 10.5135 222.069 10.4004 221.821 10.4004C221.617 10.4004 221.42 10.4428 221.231 10.5347C221.311 10.6761 221.296 10.8316 221.296 10.9872C221.296 11.6589 221.296 12.3235 221.296 12.9951C221.289 13.0093 221.289 13.0305 221.289 13.0588Z" fill="#070706"/>
<path d="M230.061 9.7004C230.061 9.19134 230.061 8.68936 230.061 8.1803C230.418 8.12373 230.767 8.0601 231.132 8.00354C231.132 8.02475 231.132 8.04596 231.132 8.06717C231.132 9.49537 231.132 10.9306 231.132 12.3588C231.132 12.4225 231.124 12.4861 231.117 12.5426C231.088 12.7194 230.971 12.8255 230.811 12.8891C230.571 12.9881 230.316 13.0376 230.061 13.0658C229.791 13.0941 229.529 13.1083 229.259 13.08C228.552 13.0164 227.984 12.6558 227.809 11.878C227.7 11.369 227.722 10.867 227.926 10.3791C228.13 9.91251 228.509 9.66505 229.019 9.58728C229.368 9.53779 229.696 9.58728 230.024 9.68626C230.039 9.69333 230.046 9.69333 230.061 9.7004ZM230.068 10.4428C229.915 10.4145 229.769 10.3721 229.616 10.3579C229.274 10.3226 228.975 10.4499 228.866 10.8246C228.836 10.9236 228.822 11.0296 228.807 11.1357C228.785 11.369 228.793 11.5952 228.866 11.8215C228.96 12.1255 229.157 12.3093 229.492 12.3376C229.682 12.3518 229.864 12.3164 230.046 12.281C230.053 12.281 230.068 12.2528 230.068 12.2316C230.068 12.1043 230.068 11.97 230.068 11.8427C230.068 11.3831 230.068 10.9236 230.068 10.4428Z" fill="#070706"/>
<path d="M224.152 10.6125C224.116 10.3579 224.079 10.1176 224.036 9.8701C224.116 9.84889 224.196 9.82061 224.276 9.7994C224.575 9.70748 224.881 9.62264 225.194 9.58022C225.617 9.52366 226.039 9.50952 226.447 9.64385C226.855 9.77819 227.089 10.061 227.154 10.4781C227.169 10.5701 227.176 10.662 227.176 10.7468C227.176 11.5316 227.176 12.3164 227.176 13.1012C227.176 13.1153 227.176 13.1295 227.176 13.1578C227.067 13.1366 226.957 13.1153 226.855 13.1012C226.615 13.0588 226.375 13.0164 226.134 12.9739C226.083 12.9669 226.018 12.9881 225.967 12.9952C225.646 13.0588 225.325 13.1012 224.997 13.0729C224.801 13.0588 224.604 13.0093 224.422 12.9245C224.028 12.7265 223.883 12.3659 223.912 11.97C223.934 11.6942 224.028 11.4538 224.254 11.2771C224.422 11.1498 224.619 11.0791 224.823 11.0367C225.063 10.9872 225.303 10.9731 225.544 10.9731C225.748 10.9731 225.952 10.9731 226.163 10.9731C226.163 10.8387 226.178 10.7044 226.127 10.5771C226.061 10.4145 225.93 10.3509 225.77 10.3226C225.566 10.2872 225.362 10.3155 225.158 10.3367C224.815 10.4004 224.487 10.4994 224.152 10.6125ZM226.171 12.3023C226.171 12.069 226.171 11.8356 226.171 11.6023C226.163 11.6023 226.156 11.5952 226.156 11.5952C225.945 11.5952 225.733 11.5952 225.529 11.5952C225.449 11.5952 225.369 11.6023 225.296 11.6165C225.085 11.6589 224.954 11.8144 224.946 12.0195C224.946 12.2174 225.056 12.3588 225.267 12.4083C225.311 12.4154 225.354 12.4225 225.405 12.4225C225.668 12.4437 225.923 12.3659 226.171 12.3023Z" fill="#070706"/>
<path d="M233.959 10.9942C233.959 10.8811 233.973 10.7821 233.959 10.6832C233.929 10.4923 233.784 10.3721 233.572 10.3438C233.339 10.3155 233.106 10.3438 232.88 10.3721C232.574 10.4145 232.29 10.5064 231.999 10.5983C231.984 10.6054 231.977 10.6054 231.955 10.6125C231.918 10.365 231.882 10.1175 231.846 9.87008C231.991 9.82766 232.137 9.78523 232.283 9.74281C232.705 9.62262 233.135 9.53777 233.58 9.54484C233.864 9.55192 234.148 9.58727 234.41 9.71453C234.731 9.87715 234.906 10.1387 234.957 10.4781C234.971 10.57 234.979 10.6619 234.979 10.7539C234.979 11.5387 234.979 12.3235 234.979 13.1012C234.979 13.1153 234.979 13.1295 234.979 13.1577C234.869 13.1365 234.767 13.1224 234.665 13.1012C234.425 13.0588 234.177 13.0163 233.937 12.9739C233.886 12.9669 233.82 12.9881 233.769 12.9951C233.449 13.0588 233.128 13.1012 232.8 13.0729C232.603 13.0588 232.407 13.0093 232.224 12.9174C231.824 12.7123 231.678 12.3447 231.714 11.9417C231.736 11.6801 231.831 11.4538 232.05 11.2841C232.203 11.1639 232.385 11.0932 232.574 11.0508C232.822 10.9942 233.077 10.973 233.332 10.973C233.521 10.973 233.704 10.973 233.893 10.973C233.915 10.9942 233.937 10.9942 233.959 10.9942ZM233.98 12.3022C233.98 12.0689 233.98 11.8356 233.98 11.6023C233.733 11.6023 233.485 11.5952 233.244 11.6023C233.157 11.6023 233.07 11.6306 232.989 11.6589C232.815 11.7296 232.734 11.8851 232.749 12.076C232.764 12.2457 232.866 12.3659 233.048 12.4083C233.099 12.4224 233.157 12.4295 233.208 12.4295C233.478 12.4437 233.725 12.3659 233.98 12.3022Z" fill="#070706"/>
<path d="M125.278 11.8356C125.278 11.8356 125.249 11.8356 125.212 11.8356H123.894V11.7508C123.741 11.8073 123.58 11.8427 123.427 11.8427C123.427 11.8427 123.398 11.8427 123.362 11.8427H122.582V11.8498H120.688H119.405V11.475C119.405 11.475 119.405 11.2064 119.405 11.1569C119.391 11.1569 119.354 11.1569 119.318 11.1569C119.318 11.3124 119.318 11.8498 119.318 11.8498H118.021V11.1003C117.81 11.1852 117.562 11.2064 117.329 11.2064C117.329 11.2064 117.249 11.2064 117.205 11.2064C117.205 11.3336 117.205 11.8498 117.205 11.8498H115.675C115.675 11.8498 115.427 11.5811 115.289 11.4397C115.15 11.5811 114.902 11.8498 114.902 11.8498H112.396V9.09235H114.859C114.859 9.09235 115.136 9.38224 115.289 9.55192C115.449 9.38931 115.718 9.09943 115.718 9.09943H115.886H116.287H117.54C117.613 9.09235 117.802 9.09236 118.014 9.17013V9.1065H119.66C119.74 9.09943 119.952 9.09943 120.17 9.18427V9.1065H122.189H122.575V9.18427C122.801 9.09235 123.012 9.09943 123.041 9.09943H124.411V9.18427C124.644 9.09235 124.855 9.09943 124.885 9.09943H125.868V0H109.015V7.02077L109.591 5.69156H110.844C110.844 5.69156 110.99 6.02386 110.997 6.038C110.997 5.98851 110.997 5.69156 110.997 5.69156H112.461C112.461 5.69156 112.68 6.16527 112.782 6.39152C112.884 6.16527 113.103 5.69156 113.103 5.69156H114.086H114.181H114.567H115.988H116.105H116.491H117.627C117.708 5.68449 117.919 5.68449 118.137 5.76933V5.69156H119.056H119.442V5.86125C119.631 5.74812 119.85 5.68449 120.068 5.67742C120.068 5.67742 120.768 5.69863 120.797 5.69863H122.043C122.043 5.69863 122.181 6.00972 122.181 6.02386C122.181 5.94609 122.181 5.69863 122.181 5.69863H123.529C123.529 5.69863 123.719 6.00972 123.741 6.04507C123.741 5.98851 123.741 5.69863 123.741 5.69863H125.045V8.44896H123.719C123.719 8.44896 123.522 8.1308 123.493 8.08838C123.493 8.11666 123.493 8.44896 123.493 8.44896H121.824C121.824 8.44896 121.679 8.12373 121.642 8.03182C121.467 8.03182 121.373 8.03182 121.198 8.03182C121.154 8.12373 121.016 8.44896 121.016 8.44896H119.908L119.879 8.44189C119.755 8.42775 119.595 8.37119 119.442 8.2722V8.44896H118.524V8.44189H117.365V8.06717C117.365 8.06717 117.365 7.7985 117.365 7.74901C117.351 7.74901 117.314 7.74901 117.278 7.74901C117.278 7.90455 117.278 8.44189 117.278 8.44189H116.483H115.981H114.56H114.465H113.256C113.256 8.44189 113.256 8.40654 113.256 8.39947C113.248 8.41361 113.234 8.44189 113.234 8.44189H112.308C112.308 8.44189 112.294 8.40654 112.287 8.3924C112.287 8.40654 112.287 8.44189 112.287 8.44189H110.611C110.611 8.44189 110.472 8.11666 110.429 8.02475C110.254 8.02475 110.159 8.02475 109.984 8.02475C109.94 8.11666 109.802 8.44189 109.802 8.44189H109.008V15.9929H125.861V11.6659C125.708 11.7861 125.489 11.8356 125.278 11.8356Z" fill="url(#paint0_radial_1896_32963)"/>
<path d="M117.787 8.06716V7.67829C117.787 7.67829 117.765 7.37427 117.437 7.37427H116.927V8.06716H116.402V6.06627H117.67C117.67 6.06627 118.333 5.9885 118.333 6.65311C118.333 6.99955 118.042 7.11974 118.042 7.11974C118.042 7.11974 118.297 7.23287 118.297 7.57224V8.06716H117.787ZM116.927 6.90764H117.466C117.626 6.90764 117.75 6.82279 117.75 6.71674C117.75 6.61068 117.619 6.52584 117.466 6.52584H116.927V6.90764Z" fill="url(#paint1_radial_1896_32963)"/>
<path d="M123.967 8.06717L123.136 6.73089V8.06717H122.684H122.597H122.109L121.927 7.65002H120.972L120.79 8.06717H120.309H120.222H119.967C119.967 8.06717 119.26 7.96819 119.26 7.11975C119.26 6.00972 120.061 6.05214 120.083 6.04507L120.732 6.05921V6.51171L120.2 6.51878C120.2 6.51878 119.857 6.51878 119.814 6.95714C119.806 7.00663 119.806 7.05612 119.806 7.09854C119.806 7.77729 120.411 7.56518 120.433 7.55811L121.081 6.06629H121.817L122.604 7.88334V6.06629H123.347L124.171 7.38135V6.06629H124.695V8.06717H123.967ZM121.191 7.14097H121.701L121.453 6.54706L121.191 7.14097Z" fill="url(#paint2_radial_1896_32963)"/>
<path d="M113.678 8.06717V6.68847L113.022 8.06717H112.592L111.929 6.69554V8.06717H111.47H111.397H110.894L110.712 7.65002H109.758L109.576 8.06717H109L109.867 6.06628H110.603L111.397 7.90455V6.06628H112.221L112.796 7.31065L113.372 6.06628H114.195V8.06717H113.678ZM109.991 7.14096H110.501L110.246 6.54706L109.991 7.14096Z" fill="url(#paint3_radial_1896_32963)"/>
<path d="M114.502 8.06717V6.06628H116.134V6.53292H115.027V6.84401H116.105V7.29651H115.027V7.63588H116.134V8.06717H114.502Z" fill="url(#paint4_radial_1896_32963)"/>
<path d="M118.559 8.07424V6.06628H119.083V8.07424H118.559Z" fill="url(#paint5_radial_1896_32963)"/>
<path d="M119.806 11.4609V11.072C119.806 11.072 119.784 10.768 119.457 10.768H118.946V11.4609H118.422V9.46001H119.69C119.69 9.46001 120.353 9.38224 120.353 10.0468C120.353 10.3933 120.061 10.5135 120.061 10.5135C120.061 10.5135 120.316 10.6266 120.316 10.966V11.4609H119.806ZM118.954 10.2943H119.493C119.653 10.2943 119.777 10.2095 119.777 10.1034C119.777 9.99735 119.646 9.91251 119.493 9.91251H118.954V10.2943Z" fill="url(#paint6_radial_1896_32963)"/>
<path d="M116.323 11.4609H115.864L115.311 10.867L114.75 11.4609H114.429H112.797V9.45293H114.429H114.706L115.303 10.0893L115.908 9.45293H116.309H117.577C117.577 9.45293 118.24 9.38223 118.24 10.0398C118.24 10.6266 118.021 10.8104 117.343 10.8104H116.833V11.4538H116.323M115.668 10.471L116.316 11.171V9.77816L115.668 10.471ZM113.329 11.0225H114.429L114.946 10.471L114.429 9.91957H113.329V10.2307H114.407V10.6832H113.329V11.0225ZM116.833 10.2943H117.373C117.533 10.2943 117.657 10.2094 117.657 10.1034C117.657 9.99734 117.526 9.9125 117.373 9.9125H116.833V10.2943Z" fill="url(#paint7_radial_1896_32963)"/>
<path d="M123.376 11.4538H122.443V10.9943H123.259C123.259 10.9943 123.551 11.0296 123.551 10.8387C123.551 10.6619 123.106 10.6761 123.106 10.6761C123.106 10.6761 122.385 10.7397 122.385 10.0822C122.385 9.43172 123.041 9.46708 123.041 9.46708H124.046V9.93371H123.237C123.237 9.93371 122.96 9.87715 122.96 10.0751C122.96 10.2377 123.339 10.2165 123.339 10.2165C123.339 10.2165 124.141 10.16 124.141 10.7609C124.141 11.4043 123.623 11.468 123.441 11.468C123.405 11.4609 123.376 11.4538 123.376 11.4538Z" fill="url(#paint8_radial_1896_32963)"/>
<path d="M120.578 11.4609V9.45999H122.21V9.92663H121.103V10.2306H122.181V10.6902H121.103V11.0225H122.21V11.4609H120.578Z" fill="url(#paint9_radial_1896_32963)"/>
<path d="M125.228 11.4538H124.295V10.9943H125.111C125.111 10.9943 125.41 11.0296 125.41 10.8387C125.41 10.6619 124.965 10.6761 124.965 10.6761C124.965 10.6761 124.244 10.7397 124.244 10.0822C124.244 9.43172 124.9 9.46708 124.9 9.46708H125.905V9.93371H125.097C125.097 9.93371 124.82 9.87715 124.82 10.0751C124.82 10.2377 125.199 10.2165 125.199 10.2165C125.199 10.2165 126 10.16 126 10.7609C126 11.4043 125.483 11.468 125.301 11.468C125.25 11.4609 125.228 11.4538 125.228 11.4538Z" fill="url(#paint10_radial_1896_32963)"/>
<path d="M51.0364 3.08264H55.2479C55.8162 3.10385 56.2752 3.28061 56.4355 3.87451L57.3536 8.15202C56.4501 5.91782 54.2788 4.05127 51 3.28061L51.0364 3.08264Z" fill="#1D327B"/>
<path d="M56.1289 12.8467L53.6953 4.77244C55.444 5.86126 56.9377 7.5864 57.4623 8.78128L57.7465 9.77818L60.4132 3.17456H63.2913L59.007 12.8396L56.1289 12.8467Z" fill="#1D327B"/>
<path d="M65.4053 12.8537H62.6875L64.3925 3.16748H67.1102L65.4053 12.8537Z" fill="#1D327B"/>
<path d="M70.1404 12.9952C68.9236 12.9881 67.7506 12.7477 67.1094 12.479L67.4883 10.3085L67.838 10.464C68.7342 10.8246 69.3098 10.9731 70.3955 10.9731C71.1751 10.9731 72.013 10.6761 72.0203 10.0256C72.0276 9.60143 71.6706 9.29741 70.614 8.8237C69.5794 8.35706 68.2169 7.5864 68.2314 6.19356C68.246 4.31287 70.1404 2.9978 72.8291 2.9978C73.8856 2.9978 74.7308 3.20991 75.2699 3.40081L74.8983 5.50068L74.6506 5.39462C74.1479 5.19665 73.5067 5.01283 72.6178 5.0199C71.554 5.0199 71.0585 5.45118 71.0585 5.85419C71.0512 6.30669 71.6341 6.60364 72.5813 7.05613C74.1479 7.74902 74.8765 8.59038 74.8619 9.68627C74.8546 11.7013 72.9966 12.9952 70.1404 12.9952Z" fill="#1D327B"/>
<path d="M82.2428 3.18164H80.1444C79.4959 3.18164 79.0077 3.35133 78.7235 3.98058L74.6797 12.8538H77.5359C77.5359 12.8538 78.0022 11.6589 78.1042 11.3973C78.4175 11.3973 81.1936 11.3973 81.587 11.3973C81.6672 11.7367 81.9149 12.8467 81.9149 12.8467H84.4359L82.2428 3.18164ZM78.8911 9.41761C79.117 8.85906 79.9768 6.7097 79.9768 6.7097C79.9622 6.73798 80.2026 6.15115 80.3411 5.7835L80.5232 6.61779C80.5232 6.61779 81.0406 8.92976 81.1499 9.41761H78.8911Z" fill="#1D327B"/>
<path d="M15.8257 7.18337C15.7965 6.90763 15.7528 6.63189 15.6945 6.37029H10.8346C10.8929 6.09455 10.9731 5.81881 11.0678 5.55721H15.4687C15.3739 5.28147 15.2574 5.00573 15.1335 4.74413H11.4102C11.5487 4.46132 11.7017 4.19265 11.8693 3.93105H14.6818C14.4996 3.64824 14.2956 3.3725 14.077 3.11797H12.474C12.7218 2.82809 12.9841 2.55235 13.2755 2.30489C11.8693 1.0676 9.99671 0.311078 7.94928 0.311078C3.55568 0.296938 0 3.74723 0 8.00352C0 12.2527 3.55568 15.703 7.9347 15.703C9.98942 15.703 11.8547 14.9465 13.2609 13.7092C13.5451 13.4547 13.8438 13.186 14.0916 12.8891H12.4667C12.2482 12.6345 12.0441 12.3588 11.862 12.076H14.6745C14.842 11.8144 14.9951 11.5387 15.1335 11.2629H11.4102C11.2791 11.0013 11.1698 10.7256 11.0678 10.4498H15.4687C15.5561 10.1812 15.6362 9.91249 15.7018 9.63675C15.7601 9.36808 15.8038 9.09941 15.833 8.82367C15.8621 8.555 15.8767 8.28633 15.8767 8.01059C15.8694 7.72778 15.8548 7.45204 15.8257 7.18337Z" fill="#E30613"/>
<path d="M13.2612 13.7092C14.6674 14.9465 16.54 15.703 18.5874 15.703C22.9737 15.703 26.5221 12.2528 26.5221 8.00353C26.5221 3.7543 22.9665 0.304016 18.5874 0.304016C16.54 0.304016 14.6674 1.06053 13.2612 2.29783C12.9698 2.55236 12.7074 2.82103 12.4597 3.11091H14.0627C14.2813 3.37251 14.4853 3.64118 14.6674 3.92399H11.855C11.6874 4.18559 11.5344 4.46133 11.3959 4.73707H15.1192C15.2431 4.99867 15.3596 5.27441 15.4544 5.55015H11.0535C10.9588 5.81882 10.8859 6.08749 10.8203 6.36323H15.6802C15.7385 6.62483 15.7822 6.90057 15.8114 7.17631C15.8405 7.44498 15.8551 7.71365 15.8551 7.98939C15.8551 8.26513 15.8405 8.54087 15.8114 8.80247C15.7822 9.07821 15.7385 9.35395 15.6802 9.61555C15.6219 9.89129 15.5418 10.167 15.4471 10.4286H11.0462C11.1409 10.7114 11.2575 10.9801 11.3886 11.2417H15.1119C14.9735 11.5245 14.8205 11.7932 14.6529 12.0548H11.8404C12.0225 12.3376 12.2266 12.6133 12.4451 12.8679H14.07L13.2612 13.7092Z" fill="#F39200"/>
<path d="M12.9257 7.87626C12.9257 7.62173 12.7726 7.46619 12.5176 7.46619C12.3209 7.46619 12.1606 7.57224 12.0586 7.77021C12.1315 7.72779 12.2116 7.70657 12.299 7.70657C12.5249 7.70657 12.6706 7.82677 12.6998 8.03181H12.9184C12.9257 7.96817 12.9257 7.91868 12.9257 7.87626Z" fill="#070706"/>
<path d="M11.9057 8.6752C11.8984 8.72469 11.8984 8.7459 11.8984 8.77418C11.8984 8.82368 11.9057 8.87317 11.913 8.92266H13.4213C13.4431 8.83782 13.4577 8.75297 13.4723 8.6752H11.9057Z" fill="#070706"/>
<path d="M17.5744 6.85107C17.2392 6.85107 16.9624 7.01369 16.7656 7.28943C16.9332 7.16217 17.1226 7.09853 17.3412 7.09853C17.5817 7.09853 17.8003 7.16217 18.1063 7.31064L18.1646 6.98541C17.946 6.88643 17.7638 6.85107 17.5744 6.85107Z" fill="#070706"/>
<path d="M2.71822 8.50551L3.46871 6.34201H3.30112L2.71094 8.05301L2.71822 8.50551Z" fill="#070706"/>
<path d="M4.99022 7.8197C5.17966 7.76313 5.45654 7.72778 5.70427 7.72778C6.06858 7.72778 6.2216 7.79142 6.25074 7.9611C6.30903 7.96817 6.37461 7.97524 6.44018 7.97524C6.46933 7.87626 6.47661 7.82677 6.47661 7.7702C6.47661 7.5581 6.33089 7.48032 5.93015 7.48032C5.68242 7.48032 5.40554 7.51568 5.2161 7.56517L5.09952 7.60052L5.02665 7.62173L5.09952 7.11267C5.04123 7.12681 4.97565 7.14095 4.91736 7.16216L4.80078 7.87626L4.88093 7.85505L4.99022 7.8197Z" fill="#070706"/>
<path d="M6.33957 8.57621C6.24484 8.56914 6.20841 8.56207 6.15012 8.56207C5.74938 8.56207 5.50894 8.6752 5.44336 8.8873C5.55265 8.83074 5.70566 8.80246 5.89511 8.80246C5.9534 8.80246 5.98983 8.80246 6.07726 8.8166C6.06998 9.0075 6.04083 9.17012 5.98983 9.29738C6.18656 9.18426 6.32499 8.92266 6.33957 8.57621Z" fill="#070706"/>
<path d="M8.78002 7.50153C8.50315 7.50153 8.35742 7.58637 8.35742 7.76313C8.35742 7.7702 8.35742 7.7702 8.35742 7.7702C8.41571 7.75606 8.48129 7.74899 8.56144 7.74899C8.72902 7.74899 8.95489 7.7702 9.18077 7.79848L9.22448 7.52981C9.06419 7.5086 8.90389 7.50153 8.78002 7.50153Z" fill="#070706"/>
<path d="M8.13216 8.70348C7.68041 8.49845 7.4764 8.22271 7.4764 7.8197C7.4764 7.60759 7.52012 7.40963 7.61484 7.24701C7.43268 7.38841 7.32339 7.57931 7.27967 7.79849C7.27967 7.86212 7.2651 7.93282 7.25781 8.03181C7.25781 8.04595 7.25781 8.05302 7.25781 8.06716C7.25781 8.47016 7.45454 8.7459 7.91357 8.95094C8.26331 9.10649 8.31432 9.15598 8.31432 9.29738C8.31432 9.30445 8.31432 9.30446 8.31432 9.31153C8.46004 9.2691 8.5329 9.18426 8.5329 9.057C8.5329 8.90852 8.4819 8.8661 8.13216 8.70348Z" fill="#070706"/>
<path d="M10.6096 7.59344L10.5586 7.86919H10.8719L10.9156 7.59344H10.6096Z" fill="#070706"/>
<path d="M18.5215 7.81972C18.7109 7.77023 18.9878 7.73487 19.2355 7.73487C19.5998 7.73487 19.7528 7.79851 19.782 7.96819C19.8403 7.97526 19.9059 7.97526 19.9714 7.9894C20.0006 7.88335 20.0079 7.84093 20.0079 7.78437C20.0079 7.57226 19.8549 7.49448 19.4541 7.49448C19.2064 7.49448 18.9295 7.52984 18.7401 7.5864L18.6235 7.62175L18.5433 7.64296L18.6308 7.12683C18.5725 7.14097 18.5069 7.16218 18.4486 7.17632L18.332 7.89042L18.4122 7.86921L18.5215 7.81972Z" fill="#070706"/>
<path d="M19.8689 8.57621C19.7814 8.56914 19.7377 8.56207 19.6794 8.56207C19.2787 8.56207 19.0455 8.6752 18.9727 8.8873C19.0819 8.83781 19.235 8.80953 19.4244 8.80953C19.4827 8.80953 19.5191 8.80953 19.6066 8.82367C19.5993 9.01457 19.5774 9.17719 19.5191 9.30445C19.7159 9.18426 19.8543 8.92266 19.8689 8.57621Z" fill="#070706"/>
<path d="M24.6573 7.2046L24.803 6.33496H24.599L24.4824 7.02078C24.548 7.07027 24.6063 7.1339 24.6573 7.2046Z" fill="#070706"/>
<path d="M24.4525 8.17324C24.4525 7.77023 24.2922 7.55106 23.9935 7.55106C23.7895 7.55106 23.6146 7.67125 23.498 7.88336C23.5782 7.8268 23.6729 7.79851 23.7749 7.79851C24.0664 7.79851 24.2267 8.01769 24.2267 8.4207C24.2267 8.71765 24.1611 8.96511 24.0591 9.156C24.3068 8.99339 24.4525 8.63281 24.4525 8.17324Z" fill="#070706"/>
<path d="M12.5256 10.0468C11.5638 10.0468 11.0683 9.559 11.0683 8.63279C11.0683 8.16615 11.1849 7.74901 11.3889 7.43085C11.0683 7.77022 10.8789 8.28635 10.8789 8.88025C10.8789 9.81353 11.4327 10.3014 12.3362 10.3014C12.6349 10.3014 12.919 10.259 13.2178 10.1741L13.2542 9.96907C13.0065 10.0186 12.7733 10.0468 12.5256 10.0468Z" fill="#070706"/>
<path d="M17.1093 10.061C16.184 10.061 15.6084 9.41758 15.6084 8.37825C15.6084 7.4874 15.9362 6.77331 16.4608 6.3703C16.235 6.49049 16.0528 6.62483 15.8634 6.82987L15.7614 6.80159L15.7031 6.91471C15.5865 7.14096 15.5064 7.39549 15.4408 7.72072C15.4116 7.71365 15.4043 7.72072 15.3825 7.72072C15.1785 7.72072 15.0546 7.80556 14.9453 8.1308C15.0327 8.04595 15.1348 8.02474 15.2513 8.02474C15.2732 8.02474 15.3533 8.02474 15.3971 8.02474C15.3679 8.21564 15.3533 8.41361 15.3533 8.61157C15.3606 9.64383 15.9581 10.3084 16.8834 10.3084C17.1239 10.3084 17.3279 10.2802 17.6412 10.1953L17.6776 9.99734C17.4518 10.0398 17.2915 10.061 17.1093 10.061Z" fill="#070706"/>
<path d="M13.7127 9.9903L14.1936 7.07028H14.0187L13.4941 10.2378H14.3539C14.3685 10.1529 14.3831 10.0681 14.3903 9.9903H13.7127Z" fill="#070706"/>
<path d="M20.7811 9.99029L21.262 7.0632H21.0871L20.5625 10.2307H21.4223C21.4368 10.1458 21.4514 10.061 21.466 9.98322L20.7811 9.99029Z" fill="#070706"/>
<path d="M24.228 9.99027L24.2717 9.67918C24.0386 9.91957 23.7908 10.0327 23.4775 10.0327C22.8509 10.0327 22.4429 9.5095 22.4429 8.71763C22.4429 8.11665 22.6542 7.56517 22.9748 7.20459C22.7853 7.32478 22.6323 7.50154 22.5085 7.72072C22.4793 7.71365 22.472 7.72072 22.4502 7.71365C22.2243 7.71365 22.0931 7.81263 21.9766 8.23685C22.0931 8.07423 22.2243 8.02474 22.37 8.01767C22.268 8.29341 22.217 8.61864 22.217 8.95801C22.217 9.74988 22.6469 10.2731 23.2735 10.2731C23.5868 10.2731 23.8346 10.167 24.0677 9.91957L24.024 10.2307H24.8401L24.8765 9.9832H24.228" fill="#070706"/>
<path d="M0.780409 9.9903L1.40702 6.34204H1.20301L0.525391 10.2378H1.36331L1.40702 9.9903H0.780409Z" fill="#070706"/>
<path d="M3.35921 9.99028L3.85468 6.99249L3.5268 7.87628L3.14062 10.2377H4.0004L4.04412 9.99028H3.35921Z" fill="#070706"/>
<path d="M2.17193 9.99028L2.09907 7.0137L1.90234 8.14494L1.95335 10.2377H2.53625L2.62368 9.99028H2.17193Z" fill="#070706"/>
<path d="M6.25184 9.9903L6.26641 9.658C6.04783 9.9196 5.75638 10.0398 5.36292 10.0398C4.8966 10.0398 4.58329 9.68628 4.58329 9.17722C4.58329 8.91562 4.64887 8.68937 4.77274 8.49847C4.57601 8.64695 4.45943 8.83785 4.40114 9.07824L4.36471 9.31155C4.36471 9.34691 4.35742 9.38933 4.35742 9.42468C4.35742 9.93374 4.6853 10.2873 5.15162 10.2873C5.54508 10.2873 5.83653 10.16 6.01868 9.90546L6.00411 10.2378H6.74731L6.75459 10.1529L6.77645 9.9903H6.25184Z" fill="#070706"/>
<path d="M8.04395 10.0398C7.93466 10.0398 7.77436 10.0256 7.57035 10.0115C7.47563 10.0044 7.39548 9.99736 7.34448 9.98322L7.19147 9.94787L7.15503 9.9408L7.22061 9.50951C7.16232 9.49537 7.09674 9.47416 7.02388 9.46002L6.92188 10.1953L6.97288 10.2024L7.13318 10.2378C7.18418 10.2448 7.25704 10.259 7.35905 10.266C7.56306 10.2802 7.71607 10.2943 7.83265 10.2943C8.45198 10.2943 8.83815 10.1388 9.0276 9.81353C8.80172 9.96201 8.48113 10.0398 8.04395 10.0398Z" fill="#070706"/>
<path d="M10.157 10.0539C9.71985 10.0539 9.47941 9.80646 9.47941 9.35396C9.47941 9.26912 9.48669 9.17013 9.50855 9.07115L9.55955 8.76006L9.60327 8.5126L9.93115 6.59656H9.75628L9.38468 8.76006L9.37011 8.86611C9.3774 8.90146 9.3774 8.94388 9.3774 8.98631C9.3774 9.19134 9.34097 9.36103 9.27539 9.50951C9.27539 9.54486 9.27539 9.57314 9.27539 9.60849C9.27539 10.061 9.51584 10.3014 9.95301 10.3084C10.1497 10.3084 10.3319 10.2731 10.5723 10.2024L10.6015 10.0044C10.4412 10.0398 10.3027 10.0539 10.157 10.0539Z" fill="#070706"/>
<path d="M19.7836 9.99028L19.7982 9.66505C19.5796 9.92665 19.2882 10.0468 18.8947 10.0468C18.4284 10.0468 18.1078 9.69333 18.1078 9.18427C18.1078 8.92267 18.1734 8.68935 18.2972 8.50552C18.0932 8.654 17.9548 8.85904 17.8965 9.11357C17.9329 9.09943 17.9693 9.07821 18.0131 9.06407L17.9038 9.71454C18.0058 10.0681 18.3045 10.2943 18.6761 10.2943C19.0696 10.2943 19.361 10.167 19.5432 9.91251L19.5286 10.2448H20.2718L20.2791 10.16L20.3009 9.99735L19.7836 9.99028Z" fill="#070706"/>
<path d="M10.7755 9.94785C10.5423 10.0186 10.3601 10.0539 10.1561 10.0539C9.71896 10.0539 9.47852 9.80645 9.47852 9.35395C9.47852 9.26911 9.4858 9.17012 9.50766 9.07114L9.55866 8.76005L9.60238 8.51259L9.97398 6.34909H10.8265L10.7245 6.8228H11.1616L11.0451 7.59346H10.6079L10.382 8.9156C10.3747 8.97216 10.3674 9.01458 10.3674 9.04286C10.3674 9.20548 10.4549 9.27618 10.6589 9.27618C10.7536 9.27618 10.8338 9.26911 10.892 9.2479L10.7755 9.94785Z" fill="white"/>
<path d="M7.47489 7.82678C7.47489 8.22978 7.67891 8.49845 8.13065 8.71056C8.48039 8.87317 8.53139 8.9156 8.53139 9.057C8.53139 9.25497 8.37838 9.34688 8.03593 9.34688C7.78091 9.34688 7.54047 9.30446 7.27088 9.21962L7.1543 9.94785L7.19073 9.95492L7.34374 9.99028C7.39474 9.99735 7.46761 10.0115 7.56961 10.0186C7.77363 10.0398 7.93392 10.0468 8.04322 10.0468C8.94671 10.0468 9.36931 9.70747 9.36202 8.9863C9.36202 8.54794 9.18716 8.29341 8.75727 8.10252C8.40024 7.9399 8.35652 7.90455 8.35652 7.75607C8.35652 7.58639 8.50225 7.50154 8.77913 7.49447C8.94671 7.49447 9.17258 7.51568 9.39846 7.54397L9.52232 6.80866C9.29645 6.77331 8.96128 6.7521 8.76455 6.74503C7.80277 6.7521 7.47489 7.23994 7.47489 7.82678Z" fill="white"/>
<path d="M18.4855 6.21476L18.347 7.06319C18.041 6.91472 17.8224 6.85109 17.582 6.85109C16.9408 6.85109 16.4891 7.45206 16.4891 8.30756C16.4891 8.90146 16.7951 9.25497 17.2905 9.25497C17.5018 9.25497 17.735 9.19134 18.0192 9.05701L17.8662 9.94079C17.5456 10.0256 17.3415 10.0539 17.1084 10.0539C16.183 10.0539 15.6074 9.41052 15.6074 8.37119C15.6074 6.97835 16.4016 6.00266 17.5456 6.00266C17.6913 6.00266 17.8224 6.0168 17.9317 6.04508L18.2888 6.12992C18.3835 6.17941 18.4053 6.18648 18.4855 6.21476Z" fill="white"/>
<path d="M25.0431 9.99029H24.2343L24.2781 9.6792C24.0449 9.91959 23.7972 10.0327 23.4839 10.0327C22.8572 10.0327 22.4492 9.50951 22.4492 8.71764C22.4492 7.66417 23.0904 6.77332 23.8482 6.77332C24.1833 6.77332 24.4384 6.90765 24.6715 7.2046L24.861 6.09457H25.7062L25.0431 9.99029ZM23.7753 9.24791C24.1761 9.24791 24.4529 8.80955 24.4602 8.1803C24.4602 7.7773 24.2999 7.55812 24.0012 7.55812C23.615 7.55812 23.3381 7.99647 23.3309 8.61866C23.3309 9.0358 23.4839 9.24084 23.7753 9.24791Z" fill="white"/>
<path d="M13.3994 9.91957C13.108 10.0044 12.8165 10.0468 12.5178 10.0468C11.556 10.0468 11.0605 9.55899 11.0605 8.63279C11.0605 7.54397 11.6944 6.74503 12.5615 6.74503C13.2683 6.74503 13.72 7.19045 13.72 7.89748C13.72 8.1308 13.6909 8.35705 13.618 8.68228H11.913C11.9057 8.73177 11.9057 8.75298 11.9057 8.78126C11.9057 9.14891 12.1608 9.33274 12.6562 9.33274C12.9623 9.33274 13.2391 9.26911 13.5452 9.13477L13.3994 9.91957ZM12.9185 8.03888C12.9258 7.97525 12.9258 7.91869 12.9258 7.87627C12.9258 7.62174 12.7728 7.46619 12.5178 7.46619C12.2482 7.46619 12.0515 7.67123 11.9713 8.03181L12.9185 8.03888Z" fill="white"/>
<path d="M15.7228 6.79451C15.701 6.78744 15.6718 6.78745 15.6354 6.78745C15.3512 6.78745 15.1909 6.92885 14.9286 7.30357L15.0015 6.8228H14.2219L13.6973 9.99027H14.557C14.8631 8.05302 14.9432 7.72072 15.3585 7.72072C15.3877 7.72072 15.3877 7.72072 15.4168 7.72072C15.497 7.33893 15.599 7.05611 15.7447 6.80159L15.7228 6.79451Z" fill="white"/>
<path d="M22.799 6.79451C22.7699 6.78744 22.7407 6.78745 22.7116 6.78745C22.4274 6.78745 22.2671 6.92885 22.0048 7.30357L22.0777 6.8228H21.298L20.7734 9.99027H21.6332C21.9392 8.05302 22.0194 7.72072 22.4347 7.72072C22.4638 7.72072 22.4566 7.72072 22.493 7.72779C22.5659 7.346 22.6751 7.06319 22.8209 6.80866L22.799 6.79451Z" fill="white"/>
<path d="M4.2184 9.99029H3.35862L3.85408 6.9925L2.75386 9.99029H2.17097L2.0981 7.01371L1.58078 9.99029H0.779297L1.44963 6.09457H2.681L2.71743 8.50553L3.54806 6.09457H4.88144L4.2184 9.99029Z" fill="white"/>
<path d="M6.33944 8.57621C6.24472 8.56914 6.20829 8.56207 6.15 8.56207C5.66182 8.56207 5.41409 8.72469 5.41409 9.04285C5.41409 9.24082 5.53795 9.36808 5.72011 9.36808C6.06985 9.36808 6.31758 9.04992 6.33944 8.57621ZM6.95877 9.99027H6.24472L6.25929 9.65796C6.0407 9.91956 5.74925 10.0398 5.3558 10.0398C4.88948 10.0398 4.57617 9.68624 4.57617 9.17719C4.57617 8.40653 5.12993 7.9611 6.08442 7.95403C6.18643 7.95403 6.31029 7.9611 6.43416 7.97524C6.4633 7.87626 6.47059 7.82677 6.47059 7.7702C6.47059 7.5581 6.32487 7.48032 5.92412 7.48032C5.67639 7.48032 5.39952 7.51567 5.21007 7.56517L5.09349 7.60052L5.02063 7.62173L5.13721 6.90763C5.5671 6.78744 5.85126 6.73795 6.16457 6.73795C6.90048 6.75209 7.28665 7.07025 7.28665 7.67829C7.28665 7.83384 7.27208 7.95403 7.21379 8.30754L7.03163 9.43172L7.00249 9.63675L6.98063 9.79937L6.96605 9.91249L6.95877 9.99027Z" fill="white"/>
<path d="M19.2505 9.3681C19.061 9.3681 18.9444 9.24084 18.9444 9.04287C18.9444 8.72471 19.1922 8.56209 19.6731 8.56209C19.7386 8.56209 19.7751 8.56916 19.8625 8.57623C19.8552 9.04994 19.6002 9.3681 19.2505 9.3681ZM20.5037 9.90544L20.5183 9.79232L20.5401 9.6297L20.5693 9.43173L20.7514 8.30756C20.8097 7.95405 20.8243 7.83386 20.8243 7.67831C20.8243 7.07027 20.4308 6.75211 19.6949 6.75211C19.3816 6.75211 19.0974 6.79453 18.6676 6.92179L18.551 7.63589L18.6311 7.61468L18.7477 7.57933C18.9372 7.52276 19.214 7.48741 19.4618 7.48741C19.8625 7.48741 20.0155 7.56519 20.0155 7.77729C20.0155 7.83386 20.0082 7.87628 19.9791 7.98233C19.8479 7.96819 19.7241 7.96112 19.6293 7.96112C18.6748 7.96112 18.1211 8.41362 18.1211 9.18428C18.1211 9.69333 18.4417 10.0468 18.908 10.0468C19.3015 10.0468 19.5929 9.92665 19.8115 9.66505L19.7969 9.99028H20.511L20.5037 9.90544Z" fill="white"/>
<defs>
<radialGradient id="paint0_radial_1896_32963" cx="0" cy="0" r="1" gradientUnits="userSpaceOnUse" gradientTransform="translate(111.346 2.24785) scale(20.3082 19.7062)">
<stop stop-color="#00B3E8"/>
<stop offset="0.427" stop-color="#0099CD"/>
<stop offset="0.5077" stop-color="#008FBF"/>
<stop offset="0.8347" stop-color="#006B90"/>
<stop offset="1" stop-color="#005F80"/>
</radialGradient>
<radialGradient id="paint1_radial_1896_32963" cx="0" cy="0" r="1" gradientUnits="userSpaceOnUse" gradientTransform="translate(111.351 2.24861) scale(20.3083 19.7063)">
<stop stop-color="#00B3E8"/>
<stop offset="0.427" stop-color="#0099CD"/>
<stop offset="0.5077" stop-color="#008FBF"/>
<stop offset="0.8347" stop-color="#006B90"/>
<stop offset="1" stop-color="#005F80"/>
</radialGradient>
<radialGradient id="paint2_radial_1896_32963" cx="0" cy="0" r="1" gradientUnits="userSpaceOnUse" gradientTransform="translate(111.353 2.24827) scale(20.3082 19.7062)">
<stop stop-color="#00B3E8"/>
<stop offset="0.427" stop-color="#0099CD"/>
<stop offset="0.5077" stop-color="#008FBF"/>
<stop offset="0.8347" stop-color="#006B90"/>
<stop offset="1" stop-color="#005F80"/>
</radialGradient>
<radialGradient id="paint3_radial_1896_32963" cx="0" cy="0" r="1" gradientUnits="userSpaceOnUse" gradientTransform="translate(111.352 2.24863) scale(20.3082 19.7062)">
<stop stop-color="#00B3E8"/>
<stop offset="0.427" stop-color="#0099CD"/>
<stop offset="0.5077" stop-color="#008FBF"/>
<stop offset="0.8347" stop-color="#006B90"/>
<stop offset="1" stop-color="#005F80"/>
</radialGradient>
<radialGradient id="paint4_radial_1896_32963" cx="0" cy="0" r="1" gradientUnits="userSpaceOnUse" gradientTransform="translate(111.353 2.24863) scale(20.3082 19.7062)">
<stop stop-color="#00B3E8"/>
<stop offset="0.427" stop-color="#0099CD"/>
<stop offset="0.5077" stop-color="#008FBF"/>
<stop offset="0.8347" stop-color="#006B90"/>
<stop offset="1" stop-color="#005F80"/>
</radialGradient>
<radialGradient id="paint5_radial_1896_32963" cx="0" cy="0" r="1" gradientUnits="userSpaceOnUse" gradientTransform="translate(111.351 2.24884) scale(20.3084 19.7064)">
<stop stop-color="#00B3E8"/>
<stop offset="0.427" stop-color="#0099CD"/>
<stop offset="0.5077" stop-color="#008FBF"/>
<stop offset="0.8347" stop-color="#006B90"/>
<stop offset="1" stop-color="#005F80"/>
</radialGradient>
<radialGradient id="paint6_radial_1896_32963" cx="0" cy="0" r="1" gradientUnits="userSpaceOnUse" gradientTransform="translate(111.353 2.24884) scale(20.3079 19.7059)">
<stop stop-color="#00B3E8"/>
<stop offset="0.427" stop-color="#0099CD"/>
<stop offset="0.5077" stop-color="#008FBF"/>
<stop offset="0.8347" stop-color="#006B90"/>
<stop offset="1" stop-color="#005F80"/>
</radialGradient>
<radialGradient id="paint7_radial_1896_32963" cx="0" cy="0" r="1" gradientUnits="userSpaceOnUse" gradientTransform="translate(111.353 2.24841) scale(20.3086 19.7066)">
<stop stop-color="#00B3E8"/>
<stop offset="0.427" stop-color="#0099CD"/>
<stop offset="0.5077" stop-color="#008FBF"/>
<stop offset="0.8347" stop-color="#006B90"/>
<stop offset="1" stop-color="#005F80"/>
</radialGradient>
<radialGradient id="paint8_radial_1896_32963" cx="0" cy="0" r="1" gradientUnits="userSpaceOnUse" gradientTransform="translate(111.352 2.24884) scale(20.3084 19.7064)">
<stop stop-color="#00B3E8"/>
<stop offset="0.427" stop-color="#0099CD"/>
<stop offset="0.5077" stop-color="#008FBF"/>
<stop offset="0.8347" stop-color="#006B90"/>
<stop offset="1" stop-color="#005F80"/>
</radialGradient>
<radialGradient id="paint9_radial_1896_32963" cx="0" cy="0" r="1" gradientUnits="userSpaceOnUse" gradientTransform="translate(111.352 2.2484) scale(20.3089 19.7069)">
<stop stop-color="#00B3E8"/>
<stop offset="0.427" stop-color="#0099CD"/>
<stop offset="0.5077" stop-color="#008FBF"/>
<stop offset="0.8347" stop-color="#006B90"/>
<stop offset="1" stop-color="#005F80"/>
</radialGradient>
<radialGradient id="paint10_radial_1896_32963" cx="0" cy="0" r="1" gradientUnits="userSpaceOnUse" gradientTransform="translate(111.353 2.24884) scale(20.3078 19.7059)">
<stop stop-color="#00B3E8"/>
<stop offset="0.427" stop-color="#0099CD"/>
<stop offset="0.5077" stop-color="#008FBF"/>
<stop offset="0.8347" stop-color="#006B90"/>
<stop offset="1" stop-color="#005F80"/>
</radialGradient>
</defs>
</svg>
