<svg width="24" height="24" viewBox="0 0 24 24" fill="none" xmlns="http://www.w3.org/2000/svg">
<path d="M18.5 17C18.9167 17 19.2708 16.8542 19.5625 16.5625C19.8542 16.2708 20 15.9167 20 15.5V5.5C20 5.08333 19.8542 4.72917 19.5625 4.4375C19.2708 4.14583 18.9167 4 18.5 4H2.5C2.08333 4 1.72917 4.14583 1.4375 4.4375C1.14583 4.72917 1 5.08333 1 5.5V15.5C1 15.9167 1.14583 16.2708 1.4375 16.5625C1.72917 16.8542 2.08333 17 2.5 17H18.5ZM16 15.5H5C5 14.8 4.75833 14.2083 4.275 13.725C3.79167 13.2417 3.2 13 2.5 13V8C3.2 8 3.79167 7.75833 4.275 7.275C4.75833 6.79167 5 6.2 5 5.5H16C16 6.2 16.2417 6.79167 16.725 7.275C17.2083 7.75833 17.8 8 18.5 8V13C17.8 13 17.2083 13.2417 16.725 13.725C16.2417 14.2083 16 14.8 16 15.5ZM4 20H21.5C21.9167 20 22.2708 19.8542 22.5625 19.5625C22.8542 19.2708 23 18.9167 23 18.5V7H21.5V18.5H4V20Z" fill="#00A9A2"/>
<path d="M14 10.4998C14.0004 10.2501 13.9049 9.99965 13.7148 9.80995L11.1903 7.28556C10.9994 7.09505 10.7497 7 10.5 7C10.2499 7 9.99982 7.09505 9.80971 7.28556L7.28558 9.80914C7.09465 10.0001 7 10.2501 7 10.5002C7 10.7499 7.09465 10.9999 7.28558 11.1905L9.80971 13.7152C10.0002 13.9054 10.2507 14.0008 10.5 14C10.7497 14 10.9994 13.9054 11.1903 13.7144L13.7144 11.1909C13.9045 10.9999 14 10.7495 14 10.4998Z" fill="#FF4300"/>
</svg>
