<svg width="25" height="16" viewBox="0 0 25 16" fill="none" xmlns="http://www.w3.org/2000/svg">
<g clip-path="url(#clip0_197_3247)">
<path d="M1.28 0H23.68C24.3869 0 24.96 0.573088 24.96 1.28V14.72C24.96 15.4269 24.3869 16 23.68 16H1.28C0.573088 16 0 15.4269 0 14.72V1.28C0 0.573088 0.573088 0 1.28 0Z" fill="#0E4595"/>
<path d="M9.38285 11.1588L10.4504 4.89442H12.1579L11.0896 11.1588H9.38285ZM17.2584 5.02946C16.9201 4.90255 16.39 4.76636 15.7281 4.76636C14.0409 4.76636 12.8524 5.61596 12.8423 6.83366C12.8327 7.73382 13.6907 8.23596 14.3384 8.53561C15.003 8.84265 15.2264 9.03846 15.2233 9.31267C15.2191 9.73254 14.6925 9.92438 14.2018 9.92438C13.5184 9.92438 13.1553 9.82944 12.5945 9.59555L12.3745 9.49603L12.1348 10.8984C12.5337 11.0732 13.2712 11.2247 14.0369 11.2325C15.8317 11.2325 16.9969 10.3927 17.0102 9.09231C17.0165 8.37971 16.5617 7.8374 15.5765 7.3903C14.9797 7.10054 14.6142 6.90713 14.6181 6.61372C14.6181 6.35334 14.9275 6.07487 15.5959 6.07487C16.1543 6.06623 16.5588 6.18799 16.8739 6.31487L17.0269 6.38719L17.2584 5.02946ZM21.6523 4.89433H20.3329C19.9241 4.89433 19.6182 5.00591 19.4388 5.41381L16.9029 11.1546H18.6959C18.6959 11.1546 18.9891 10.3827 19.0554 10.2132C19.2514 10.2132 20.9931 10.2159 21.2422 10.2159C21.2932 10.4352 21.4499 11.1546 21.4499 11.1546H23.0343L21.6523 4.89413V4.89433ZM19.5589 8.93945C19.7001 8.57852 20.2392 7.18831 20.2392 7.18831C20.2291 7.20502 20.3794 6.82562 20.4656 6.59042L20.581 7.13055C20.581 7.13055 20.908 8.62588 20.9763 8.93945H19.5589ZM7.93331 4.89433L6.26163 9.16633L6.08349 8.29817C5.77229 7.29743 4.80269 6.21321 3.71875 5.67039L5.24726 11.1488L7.05385 11.1467L9.74198 4.89426H7.93331" fill="white"/>
<path d="M4.70089 4.89564H1.94757L1.92578 5.02597C4.0678 5.5445 5.48514 6.79759 6.07362 8.30309L5.4749 5.42437C5.37154 5.02773 5.0718 4.90936 4.70095 4.89551" fill="#D5F07D"/>
</g>
<defs>
<clipPath id="clip0_197_3247">
<rect width="24.96" height="16" rx="2" fill="white"/>
</clipPath>
</defs>
</svg>
